<svg width="18" height="18" fill="none" xmlns="http://www.w3.org/2000/svg"><path d="M17.468 7.362H8.994v3.483h4.84a4.133 4.133 0 01-1.796 2.715c-.806.54-1.836.859-3.046.859-2.343 0-4.325-1.583-5.033-3.71a5.454 5.454 0 01-.282-1.71c0-.594.104-1.17.282-1.71.71-2.125 2.692-3.708 5.035-3.708 1.32 0 2.505.455 3.438 1.346l2.58-2.582C13.452.891 11.42 0 8.994 0A8.99 8.99 0 000 9.001 8.99 8.99 0 008.994 18c2.43 0 4.466-.807 5.952-2.181 1.7-1.567 2.683-3.875 2.683-6.616 0-.638-.056-1.25-.161-1.841z" fill="#fff"/></svg>