<svg width="23" height="20" fill="none" xmlns="http://www.w3.org/2000/svg"><path d="M19.878 0H2.363C1.06 0 0 .997 0 2.222v15.556C0 19.003 1.06 20 2.363 20h17.515c1.304 0 2.363-.997 2.363-2.222V2.222C22.241.997 21.181 0 19.878 0zm0 17.778H2.363c-.063 0-.107-.018-.126-.018-.007 0-.012.002-.013.009L2.211 2.273c.008-.01.058-.05.152-.05h17.515c.088 0 .136.03.14.008l.013 15.496c-.008.01-.058.05-.153.05z" fill="#EF4723"/><path d="M4.448 4.444h6.673v6.667H4.448V4.444zm7.785 8.89H4.448v2.222h13.345v-2.223h-5.56zm1.112-4.445h4.448v2.222h-4.448V8.89zm0-4.445h4.448v2.223h-4.448V4.444z" fill="#EF4723"/></svg>