<svg width="18" height="20" fill="none" xmlns="http://www.w3.org/2000/svg"><path d="M5.025 5.781V4.22c0-.258.212-.469.47-.469h1.57c.26 0 .472.21.472.469v1.56a.471.471 0 01-.471.469h-1.57a.471.471 0 01-.471-.469zm5.495.469h1.57c.26 0 .472-.21.472-.469V4.22a.471.471 0 00-.471-.469h-1.57c-.26 0-.472.21-.472.469v1.56c0 .258.212.469.471.469zM5.496 10h1.57a.47.47 0 00.471-.469V7.97a.471.471 0 00-.471-.469h-1.57a.47.47 0 00-.471.469v1.56c0 .258.212.469.47.469zm5.024 0h1.57c.26 0 .472-.21.472-.469V7.97a.471.471 0 00-.471-.469h-1.57c-.26 0-.472.21-.472.469v1.56c0 .258.212.469.471.469zm-2.983 3.281V11.72a.471.471 0 00-.471-.469h-1.57a.47.47 0 00-.471.469v1.562c0 .258.212.469.47.469h1.57c.26 0 .472-.21.472-.469zm2.983.469h1.57c.26 0 .472-.21.472-.469V11.72a.471.471 0 00-.471-.469h-1.57c-.26 0-.472.21-.472.469v1.562c0 .258.212.469.471.469zm7.066 4.844V20H0v-1.406c0-.258.212-.469.471-.469h.766V.937c0-.519.42-.937.942-.937h13.229c.522 0 .942.418.942.938v17.187h.765c.26 0 .471.21.471.469zm-14.465-.508h4.416v-2.617c0-.258.212-.469.471-.469h1.57c.26 0 .471.21.471.469v2.617h4.416V1.914L3.14 1.875l-.02 16.21z" fill="#EF4723"/></svg>