<svg width="12" height="12" fill="none" xmlns="http://www.w3.org/2000/svg"><path d="M5.995 2.692L1.446 7.206c-.034.035-.077.05-.114.079v4.331c0 .207.15.375.333.375h3.107L4.91 12h.25l.335-.01h4.829c.184 0 .333-.167.333-.374v-4.33c-.035-.027-.077-.043-.11-.075L5.996 2.692zm5.885 2.842L10.658 4.32V1.124c0-.207-.149-.375-.333-.375H8.993c-.184 0-.333.168-.333.375v1.21L6.552.242A.782.782 0 005.995 0a.776.776 0 00-.556.24L.111 5.535a.408.408 0 00-.026.529l.446.558a.308.308 0 00.47.028l4.774-4.737a.306.306 0 01.44 0L10.99 6.65a.308.308 0 00.47-.029l.445-.557a.408.408 0 00-.025-.53z" fill="#EB4C43"/></svg>