<svg width="11" height="12" fill="none" xmlns="http://www.w3.org/2000/svg"><path d="M10.2 8.48L7.905 7.355a.435.435 0 00-.311-.03.49.49 0 00-.264.191l-1.017 1.42c-1.596-.86-2.88-2.328-3.634-4.152L3.921 3.62a.576.576 0 00.167-.3.636.636 0 00-.025-.356L3.078.34a.542.542 0 00-.23-.28.44.44 0 00-.334-.046L.381.577a.49.49 0 00-.274.198.615.615 0 00-.107.35C0 7.137 4.264 12 9.516 12c.111 0 .22-.043.306-.122a.577.577 0 00.174-.314l.492-2.437a.642.642 0 00-.042-.383.533.533 0 00-.245-.264z" fill="#EB4C43"/></svg>