<svg width="14" height="14" fill="none" xmlns="http://www.w3.org/2000/svg"><path fill="#B4B4B4" d="M0 0h2.545v2.8H0zm0 11.2h2.545V14H0zM11.454 0h2.545v2.8h-2.545zm0 11.2h2.545V14h-2.545z"/><path fill-rule="evenodd" clip-rule="evenodd" d="M2.545 1.4h.557V.9h-.557v.5zm1.67 0H5.33V.9H4.216v.5zm2.228 0h1.114V.9H6.443v.5zm2.227 0h1.114V.9H8.67v.5zm2.228 0h.556V.9h-.556v.5zm-9.626.7v.49h.5V2.1h-.5zm0 1.47v.98h.5v-.98h-.5zm0 1.96v.98h.5v-.98h-.5zm0 1.96v.98h.5v-.98h-.5zm0 1.96v.98h.5v-.98h-.5zm0 1.96v.49h.5v-.49h-.5zm11.455-8.82V2.1h.5v.49h-.5zm0 1.96v-.98h.5v.98h-.5zm0 1.96v-.98h.5v.98h-.5zm0 1.96v-.98h.5v.98h-.5zm0 1.96v-.98h.5v.98h-.5zm0 1.47v-.49h.5v.49h-.5zm-10.182.7h.557v-.5h-.557v.5zm1.67 0H5.33v-.5H4.216v.5zm2.228 0h1.114v-.5H6.443v.5zm2.227 0h1.114v-.5H8.67v.5zm2.228 0h.556v-.5h-.556v.5z" fill="#B4B4B4"/></svg>